<?xml version="1.0" standalone="no"?>
<!DOCTYPE svg PUBLIC "-//W3C//DTD SVG 20010904//EN"
 "http://www.w3.org/TR/2001/REC-SVG-20010904/DTD/svg10.dtd">
<svg version="1.0" xmlns="http://www.w3.org/2000/svg"
 width="1024.000000pt" height="506.000000pt" viewBox="0 0 1024.000000 506.000000"
 preserveAspectRatio="xMidYMid meet">

<g transform="translate(0.000000,506.000000) scale(0.100000,-0.100000)"
fill="#000000" stroke="none">
<path d="M4652 5027 c-16 -43 -16 -124 0 -129 9 -3 9 -12 -1 -36 -7 -17 -10
-35 -7 -41 7 -11 -24 -81 -36 -81 -4 0 -8 -18 -8 -40 0 -30 4 -40 16 -40 12 0
14 -5 9 -17 -13 -32 -22 -103 -13 -103 5 0 7 -9 4 -20 -3 -11 -8 -29 -11 -39
-5 -15 0 -20 17 -23 l23 -3 -23 -23 c-20 -20 -24 -34 -24 -98 -1 -58 -4 -74
-16 -74 -11 0 -12 -3 -2 -15 15 -18 3 -37 -19 -30 -10 3 -29 -3 -42 -13 -13
-11 -35 -22 -49 -25 -57 -13 -219 -65 -250 -80 -18 -10 -41 -17 -51 -17 -10 0
-20 -4 -23 -9 -6 -9 45 -6 144 9 30 4 62 4 70 0 9 -5 29 -1 51 11 20 10 111
32 201 48 89 16 237 44 328 61 91 17 214 40 274 51 60 11 113 22 117 25 4 2
27 7 51 10 24 3 71 12 105 20 34 9 75 14 90 12 l28 -3 3 -260 c2 -143 0 -275
-3 -293 l-6 -33 -87 2 c-90 2 -127 -4 -171 -27 -14 -8 -34 -14 -43 -14 -10 0
-18 -4 -18 -9 0 -5 -17 -15 -37 -21 -21 -7 -51 -18 -68 -25 -16 -7 -43 -17
-58 -24 -15 -6 -39 -11 -52 -11 -14 0 -25 -5 -25 -10 0 -7 -20 -10 -49 -9 -48
2 -105 -14 -128 -37 -7 -7 -13 -29 -13 -48 0 -20 -5 -36 -11 -36 -6 0 -9 -17
-7 -42 3 -38 7 -44 47 -65 25 -13 52 -30 61 -38 9 -8 24 -15 32 -15 9 0 45 -7
79 -16 61 -16 164 -16 201 0 12 6 18 2 21 -16 2 -13 6 6 7 42 2 36 3 72 4 80
1 8 6 15 13 15 6 0 15 3 19 8 4 4 16 7 26 7 11 0 17 4 13 9 -3 5 0 13 6 17 8
4 9 3 5 -4 -10 -16 20 -15 146 2 57 8 129 18 160 21 32 4 60 11 63 16 9 14 40
11 80 -8 36 -17 51 -49 57 -120 1 -17 5 -31 8 -31 18 2 23 -4 10 -12 -12 -8
-9 -10 12 -10 22 0 26 -4 22 -17 -4 -11 -3 -14 3 -7 6 9 25 8 73 -4 l65 -17
-63 -6 c-34 -3 -65 -9 -69 -12 -7 -8 -7 2 -5 -370 2 -218 5 -278 15 -275 9 4
13 79 17 314 l5 309 40 2 c131 8 668 54 980 83 315 30 806 91 1310 163 147 21
160 24 163 44 3 17 -1 20 -18 16 -12 -3 -32 0 -45 7 -22 12 -23 14 -8 25 9 7
16 26 16 43 0 17 4 29 9 26 4 -3 13 7 20 22 l13 27 6 -24 c5 -18 7 -13 8 21 1
25 5 50 9 55 4 6 33 19 65 28 31 10 57 23 57 28 0 6 4 8 10 4 15 -10 103 40
183 105 l75 60 69 -35 c88 -44 170 -65 258 -65 110 0 111 -1 119 -172 7 -146
1 -218 -31 -348 -8 -36 -19 -70 -24 -76 -5 -6 -16 -28 -24 -48 -12 -29 -13
-37 -3 -33 7 2 12 11 10 20 -1 8 2 18 8 22 6 3 7 0 4 -9 -3 -9 -3 -16 0 -16 4
0 11 10 16 23 8 19 8 18 7 -10 -1 -17 -5 -29 -8 -27 -4 2 -12 -3 -19 -11 -7
-8 -15 -13 -19 -11 -10 7 0 -78 12 -92 5 -7 16 -11 24 -8 8 3 12 2 9 -2 -9
-15 21 -42 39 -35 18 6 17 7 -1 15 -11 4 -4 5 16 0 41 -8 229 -6 238 3 4 3 0
10 -7 14 -9 6 -6 10 12 15 16 4 33 21 46 46 25 49 63 230 55 268 -3 15 1 53 9
83 9 29 19 78 22 107 10 73 25 65 26 -15 1 -38 2 -90 3 -118 1 -27 2 -126 4
-219 l2 -168 125 7 126 7 34 -37 c20 -20 33 -40 30 -45 -3 -5 -1 -11 5 -15 5
-3 10 -33 10 -66 l0 -59 -42 0 c-24 0 -67 -3 -95 -6 l-53 -7 -1 -241 c-1 -136
-4 -230 -9 -216 -5 14 -8 -58 -9 -172 -1 -109 0 -200 2 -203 1 -2 -7 -11 -18
-20 -11 -9 -14 -14 -7 -10 26 13 10 -6 -20 -25 -31 -19 -52 -20 -346 -20 -257
0 -318 3 -342 15 -36 18 -62 85 -58 146 l3 44 70 5 c56 4 71 8 73 22 2 15 -9
17 -96 17 -105 -1 -172 12 -192 36 -7 8 -16 12 -21 9 -5 -3 -9 2 -9 11 0 12 6
15 21 10 19 -6 20 -5 9 7 -16 17 -54 22 -44 6 7 -11 4 -10 -43 9 -7 3 -13 0
-13 -6 0 -10 14 -15 33 -12 4 0 7 -4 7 -9 0 -6 -3 -10 -7 -11 -53 -7 -93 -6
-98 1 -4 6 7 10 24 10 17 0 31 5 31 11 0 6 -7 8 -16 5 -8 -3 -12 -2 -9 4 3 6
0 10 -7 10 -7 0 -23 3 -35 6 -23 6 -23 5 -23 -95 0 -93 2 -101 19 -101 12 0
21 8 23 20 2 12 8 20 13 20 6 -1 9 -8 7 -16 -2 -8 5 -14 18 -14 22 0 27 15 8
23 -8 3 -6 6 5 6 9 1 17 -5 17 -13 0 -9 17 -16 50 -20 76 -10 102 -38 106
-112 l3 -59 -7 52 c-5 34 -16 61 -31 77 -23 25 -30 26 -128 26 l-103 0 0 -130
0 -130 100 0 100 0 0 101 c0 72 3 98 11 93 8 -5 10 -35 6 -100 l-6 -94 24 0
c22 0 25 4 27 43 l1 42 6 -45 6 -45 172 -5 173 -5 32 -32 c30 -30 33 -39 36
-108 l4 -75 -91 0 -91 0 -2 -302 c-1 -208 -4 -270 -8 -198 l-7 105 0 -143 c-1
-201 -7 -205 -232 -185 -437 39 -438 39 -465 92 -9 17 -16 55 -16 86 l0 55 65
0 65 0 0 48 0 48 -187 12 c-104 6 -318 21 -478 31 -329 23 -724 45 -1055 62
-205 10 -933 37 -937 35 -1 -1 -3 -42 -5 -92 -1 -51 -6 -90 -10 -87 -5 2 -8
-3 -8 -12 0 -9 5 -13 11 -9 8 5 8 1 0 -13 -22 -42 -53 -45 -287 -29 -215 15
-219 16 -241 41 -23 26 -23 30 -23 303 -1 228 -3 280 -15 296 -14 18 -15 17
-15 -21 0 -66 -14 -73 -140 -73 -141 0 -140 -2 -140 167 0 160 2 163 133 164
60 0 85 3 72 9 -19 8 -19 9 3 9 13 1 21 5 17 10 -3 5 0 22 7 36 11 24 13 25
19 8 3 -10 6 3 5 29 -1 25 -4 41 -8 35 -6 -9 -11 -8 -18 3 -8 13 -10 12 -10
-3 0 -10 -4 -15 -10 -12 -13 8 -13 -1 0 -26 8 -14 7 -25 -5 -42 l-15 -24 -93
13 c-92 13 -157 10 -157 -8 0 -10 -39 -54 -42 -47 -2 2 -16 19 -33 37 -25 28
-27 34 -15 42 10 6 -23 10 -96 10 -144 0 -144 0 -144 141 0 57 -5 111 -10 119
-5 8 -10 11 -10 5 0 -5 -5 -2 -11 8 -13 22 -95 24 -126 2 -38 -27 -67 -85 -70
-143 -4 -64 -17 -92 -43 -92 -24 0 -27 13 -35 145 -4 55 -9 104 -12 109 -11
18 -23 -36 -29 -134 -4 -54 -10 -104 -14 -110 -4 -7 -23 -15 -41 -19 -42 -9
-53 -30 -72 -146 -9 -49 -21 -111 -28 -137 l-12 -48 -48 0 c-29 0 -53 -6 -63
-15 -17 -17 -36 -20 -36 -5 0 6 -11 16 -25 22 -21 9 -25 18 -25 55 0 23 5 43
10 43 12 0 13 60 2 78 -6 9 -12 5 -23 -15 -8 -16 -17 -30 -21 -33 -4 -3 -2
-26 3 -50 6 -25 9 -67 7 -95 -3 -48 -2 -49 29 -56 55 -11 80 -34 89 -81 9 -53
6 -79 -12 -97 -12 -13 -8 -17 24 -28 20 -7 79 -17 131 -23 51 -6 97 -13 102
-15 4 -3 47 -8 96 -10 130 -8 124 -1 92 -98 -25 -75 -26 -84 -11 -100 19 -21
10 -31 -31 -34 -61 -4 -184 -31 -214 -46 -17 -9 -33 -14 -36 -11 -3 3 -15 3
-28 -1 -16 -5 -18 -9 -9 -15 7 -5 20 -6 28 -2 10 3 13 0 10 -9 -2 -7 -15 -16
-29 -20 -13 -4 -18 -7 -11 -8 8 -1 12 -25 12 -86 l0 -85 27 0 c26 0 26 -1 7
-15 -10 -8 -32 -15 -49 -15 -16 -1 -39 -6 -50 -11 -18 -8 -17 -9 5 -5 14 3 68
8 120 11 156 10 617 45 730 56 58 5 170 14 250 19 80 5 190 14 244 20 55 5
107 8 115 5 13 -4 17 -23 19 -92 3 -95 7 -109 27 -93 8 7 13 40 14 97 1 48 4
89 6 92 3 2 53 8 112 13 110 9 307 4 423 -12 36 -5 119 -11 185 -15 66 -3 206
-15 310 -26 105 -10 255 -23 335 -28 178 -12 237 -21 218 -33 -8 -5 16 -7 62
-6 l74 3 9 -54 c7 -39 6 -56 -3 -61 -25 -16 -171 -19 -650 -15 -272 2 -503 2
-512 -1 -25 -7 -20 -54 7 -59 11 -2 139 -9 285 -15 832 -34 889 -40 1288 -136
123 -30 239 -54 258 -54 32 0 34 2 34 36 0 29 -3 35 -16 30 -12 -4 -15 -2 -11
9 4 8 2 17 -3 20 -6 4 -10 -1 -10 -9 0 -9 -7 -16 -15 -16 -9 0 -15 -9 -15 -24
0 -23 -2 -24 -32 -15 -18 6 -46 13 -63 16 -47 8 -45 16 3 10 25 -3 42 -1 42 5
0 6 9 8 20 5 11 -3 20 -2 20 3 0 4 -12 10 -27 14 -16 3 -50 13 -78 20 -67 19
-31 20 42 1 73 -19 114 -18 51 1 -26 8 -50 19 -54 26 -4 6 -3 8 2 5 6 -3 16
-2 24 4 10 6 11 9 3 9 -7 0 -13 5 -13 11 0 7 41 10 128 9 173 -3 296 -1 291 4
-2 2 -87 7 -189 11 -102 4 -216 9 -255 10 -38 2 -79 4 -91 4 -18 1 -22 9 -28
49 -3 26 -9 60 -13 76 -4 19 -2 27 5 22 6 -3 12 -1 14 5 5 14 420 -15 447 -31
14 -8 13 -10 -4 -11 -14 -1 -11 -4 10 -9 28 -7 27 -8 -12 -9 -38 -1 -56 10
-35 22 4 2 0 2 -8 -1 -8 -2 -26 -6 -40 -8 -21 -4 -22 -3 -5 4 14 6 6 9 -30 9
-28 -1 -40 -2 -27 -4 12 -3 22 -11 22 -19 0 -8 4 -13 8 -10 5 3 57 2 116 -2
98 -7 136 -2 104 12 -7 3 -2 3 12 1 112 -18 147 -16 64 4 l-39 9 45 1 c25 1
92 -5 150 -11 l105 -13 -75 -6 c-65 -4 -71 -6 -42 -13 17 -5 32 -12 32 -17 0
-5 39 -9 87 -9 71 0 90 3 107 19 20 18 27 19 171 6 83 -8 168 -14 189 -15 22
0 36 -3 33 -7 -4 -3 -29 -5 -57 -4 -27 1 -50 -3 -50 -8 0 -5 -8 -12 -17 -14
-10 -3 7 -4 38 -3 30 1 64 -1 75 -5 17 -7 17 -8 2 -8 -25 -1 -23 -21 2 -21 11
0 20 -4 20 -9 0 -6 9 -8 20 -6 11 2 20 0 20 -6 0 -5 35 -8 78 -8 61 1 70 3 42
9 -32 7 -30 8 17 7 29 0 50 -5 46 -9 -11 -19 33 -37 90 -38 36 0 56 -4 52 -10
-3 -5 3 -10 14 -10 10 0 21 4 23 9 3 9 29 14 60 12 35 -2 49 -99 25 -178 -8
-28 -13 -53 -11 -56 2 -2 -21 -7 -53 -10 -34 -4 -60 -2 -63 4 -4 5 -71 12
-151 15 -79 3 -166 9 -193 15 -27 5 -51 7 -54 4 -13 -13 21 -28 80 -35 60 -8
156 -29 224 -50 17 -6 40 -10 52 -10 12 0 30 -4 40 -9 9 -5 32 -15 50 -21 17
-7 32 -19 32 -26 0 -8 7 -14 15 -14 14 0 18 -12 18 -55 -1 -34 -3 -37 -19 -31
-13 5 -15 2 -11 -14 3 -14 -1 -21 -16 -26 -12 -4 -27 -14 -33 -23 -9 -11 -38
-17 -105 -22 -104 -8 -149 -17 -149 -30 0 -14 58 -11 63 4 4 9 6 9 6 0 1 -17
68 -17 74 0 4 9 6 9 6 0 1 -10 79 -13 356 -13 l356 0 -2 139 -1 139 -62 12
c-35 6 -80 10 -102 7 -21 -2 -50 1 -64 6 -35 13 -90 18 -90 7 0 -4 -9 -6 -20
-3 -11 3 -20 10 -20 15 0 5 -4 7 -9 4 -5 -3 -14 1 -21 9 -10 12 -8 16 14 25
33 12 34 30 1 30 -16 0 -25 6 -25 15 0 8 -4 15 -10 15 -27 0 2 169 30 171 10
0 9 3 -5 8 -13 5 4 8 45 7 36 0 80 3 99 8 24 6 32 5 27 -3 -4 -6 -20 -11 -36
-11 -38 0 -47 -16 -13 -25 20 -5 24 -8 13 -15 -11 -7 -8 -10 11 -14 49 -10
175 -16 207 -10 28 6 32 10 32 40 0 23 -5 34 -17 37 -17 4 -17 5 0 6 16 1 17
78 17 1478 0 1423 -1 1476 -18 1460 -15 -14 -37 -16 -139 -13 -145 5 -163 13
-163 73 0 29 7 50 23 68 22 26 26 27 128 27 108 0 140 -8 158 -40 7 -11 10
207 11 686 l0 702 -2788 0 -2788 0 -12 -33z m435 -42 c34 -23 25 -48 -22 -63
-68 -23 -165 -1 -165 37 0 47 128 64 187 26z m5017 -255 c-16 -16 -126 -18
-131 -2 -4 9 14 12 68 12 51 0 70 -3 63 -10z m-3504 -250 c21 0 40 -3 42 -7 2
-5 21 -17 43 -28 l40 -19 -45 -6 c-25 -3 27 -6 115 -7 100 -1 161 -6 163 -13
2 -5 11 -10 20 -11 15 0 15 -1 -1 -7 -14 -6 -11 -11 20 -27 27 -15 37 -17 41
-7 5 15 188 17 197 2 4 -6 -21 -10 -66 -10 -57 0 -70 -3 -61 -12 7 -7 12 -25
12 -40 l0 -28 78 0 c66 0 80 -3 92 -20 8 -11 22 -20 32 -20 10 0 18 -4 18 -10
0 -5 4 -10 10 -10 5 0 11 33 13 73 2 58 3 53 4 -28 0 -55 -1 -92 -4 -82 -3 12
-15 17 -44 17 -21 0 -39 5 -39 10 0 6 -9 10 -20 10 -11 0 -20 5 -20 10 0 6 -9
10 -20 10 -11 0 -20 5 -20 10 0 6 -18 10 -39 10 -23 0 -41 5 -43 12 -3 8 -14
2 -31 -17 -19 -22 -22 -31 -11 -33 23 -5 16 -24 -8 -22 -62 5 -68 2 -68 -39 0
-35 3 -39 31 -45 17 -3 44 -6 60 -6 17 0 29 -5 29 -12 0 -7 18 -21 40 -30 23
-9 40 -23 40 -32 0 -9 5 -16 12 -16 7 0 44 -10 84 -22 l72 -21 6 -51 c3 -28 6
-85 6 -127 l0 -76 -42 -11 c-65 -17 -159 -24 -193 -14 -41 11 -46 52 -11 87
14 14 28 40 31 58 6 28 3 35 -19 47 -14 7 -26 19 -26 27 0 9 -13 13 -40 13
-22 0 -40 4 -40 10 0 5 -18 13 -40 16 -22 4 -40 11 -40 16 0 5 -21 8 -47 7
-27 -1 -63 1 -80 5 -28 6 -33 5 -33 -11 -1 -17 -2 -17 -16 2 -13 18 -26 20
-113 18 -68 -1 -108 -6 -129 -17 -17 -9 -44 -16 -61 -16 -16 0 -33 -4 -36 -10
-3 -5 -13 -10 -21 -10 -26 0 -76 -49 -84 -82 -3 -13 -18 -25 -35 -31 -17 -5
-49 -17 -72 -28 -24 -10 -49 -19 -56 -19 -7 0 -18 -5 -23 -10 -6 -6 -47 -16
-92 -22 -72 -11 -85 -10 -118 5 -28 14 -59 18 -133 16 -57 -1 -99 -6 -103 -12
-4 -7 -12 1 -18 18 -15 39 -10 569 6 585 5 5 57 19 115 31 57 11 124 24 149
30 25 5 72 13 105 18 69 11 195 38 241 52 17 5 44 9 62 9 17 0 34 5 37 10 3 6
16 10 28 9 21 0 21 -1 2 -8 -19 -8 -19 -8 2 -19 18 -10 22 -8 27 11 7 21 7 21
15 2 8 -20 8 -20 15 1 5 16 12 20 31 16 16 -3 25 0 26 9 1 8 4 4 6 -8 4 -19
11 -23 43 -23z m138 23 c-10 -2 -26 -2 -35 0 -10 3 -2 5 17 5 19 0 27 -2 18
-5z m-105 -10 c-7 -2 -19 -2 -25 0 -7 3 -2 5 12 5 14 0 19 -2 13 -5z m950
-200 c9 -9 17 -29 17 -45 0 -26 -2 -28 -43 -28 -46 0 -67 13 -67 42 0 42 59
61 93 31z m-65 -390 c2 34 4 37 21 27 11 -5 26 -10 35 -10 8 0 30 -13 48 -30
18 -16 38 -30 45 -30 7 0 13 -9 13 -21 0 -11 7 -27 15 -36 28 -27 11 -38 -71
-45 -43 -4 -92 -9 -109 -10 l-30 -3 -1 98 c-1 53 3 97 8 97 4 0 9 8 10 18 1 9
4 -8 8 -38 6 -46 7 -49 8 -17z m2330 -281 c3 -44 -13 -87 -29 -77 -10 7 -13
108 -2 119 15 15 28 -3 31 -42z m-1463 -100 c-8 -8 -85 -19 -85 -12 0 12 8 15
49 15 22 1 38 -1 36 -3z m-95 -12 c0 -5 -4 -10 -10 -10 -5 0 -10 5 -10 10 0 6
5 10 10 10 6 0 10 -4 10 -10z m-45 -9 c-11 -5 -47 -12 -80 -15 -71 -8 -124
-16 -147 -23 -10 -2 -18 0 -18 4 0 5 48 15 108 22 59 7 112 14 117 16 22 7 39
3 20 -4z m-435 -29 c3 -4 12 -8 20 -10 42 -10 39 -20 -9 -26 -28 -4 -57 -4
-63 0 -6 4 -8 3 -5 -3 4 -6 -19 -13 -61 -17 -37 -3 -95 -9 -129 -12 -57 -6
-63 -5 -63 12 0 14 3 15 12 6 7 -7 19 -12 28 -11 13 0 13 1 0 6 -17 7 -40 29
-40 38 0 3 4 3 10 0 13 -8 120 17 120 29 0 10 171 -1 180 -12z m128 -19 c-10
-2 -28 -2 -40 0 -13 2 -5 4 17 4 22 1 32 -1 23 -4z m-578 -50 c0 -7 8 -13 17
-13 9 0 14 -2 11 -5 -11 -12 -283 -34 -292 -25 -7 7 -2 10 14 10 41 -1 85 4
90 10 26 30 160 49 160 23z m-2090 -93 c0 -5 -5 -10 -11 -10 -5 0 -7 5 -4 10
3 6 8 10 11 10 2 0 4 -4 4 -10z m1447 4 c-3 -3 -12 -4 -19 -1 -8 3 -5 6 6 6
11 1 17 -2 13 -5z m-314 -31 c-7 -2 -21 -2 -30 0 -10 3 -4 5 12 5 17 0 24 -2
18 -5z m2874 -15 c-3 -8 -6 -5 -6 6 -1 11 2 17 5 13 3 -3 4 -12 1 -19z m-3134
-5 c-7 -2 -19 -2 -25 0 -7 3 -2 5 12 5 14 0 19 -2 13 -5z m3112 -113 c-3 -5
-12 -10 -18 -10 -7 0 -6 4 3 10 19 12 23 12 15 0z m612 -1083 c-2 -23 -3 -1
-3 48 0 50 1 68 3 42 2 -26 2 -67 0 -90z m-4470 -389 c-3 -8 -6 -5 -6 6 -1 11
2 17 5 13 3 -3 4 -12 1 -19z m3215 -580 c-7 -7 -12 -8 -12 -2 0 14 12 26 19
19 2 -3 -1 -11 -7 -17z m-4373 -70 c0 -18 -4 -55 -9 -83 -7 -47 -7 -45 -9 33
0 49 3 82 9 82 6 0 10 -15 9 -32z m3068 -164 c-3 -3 -12 -4 -19 -1 -8 3 -5 6
6 6 11 1 17 -2 13 -5z m215 -23 c-11 -7 -11 -9 2 -14 9 -4 16 -13 16 -21 0
-11 16 -18 53 -23 l52 -8 -60 -6 c-33 -3 -76 -10 -95 -14 -32 -8 -34 -7 -21 8
7 9 10 17 5 17 -5 0 -2 5 6 10 12 8 12 10 1 10 -11 0 -11 4 2 18 10 10 14 22
10 25 -3 4 5 7 18 7 17 0 20 -3 11 -9z m-57 -161 l30 -8 -30 0 c-16 0 -41 4
-55 8 l-25 8 25 0 c14 0 39 -4 55 -8z m1698 3 c-7 -2 -19 -2 -25 0 -7 3 -2 5
12 5 14 0 19 -2 13 -5z m427 -8 l125 -13 -131 2 c-73 0 -130 4 -127 9 2 4 -1
7 -6 7 -6 0 -11 -4 -11 -10 0 -5 -8 -10 -17 -10 -15 0 -15 2 -4 9 11 7 7 10
-15 14 -70 10 70 5 186 -8z m-277 -12 c-7 -2 -19 -2 -25 0 -7 3 -2 5 12 5 14
0 19 -2 13 -5z m682 -23 c49 -7 42 -8 -43 -5 -57 2 -106 6 -110 9 -7 8 80 6
153 -4z m163 -17 c-16 -2 -40 -2 -55 0 -16 2 -3 4 27 4 30 0 43 -2 28 -4z
m-211 -9 c-3 -3 -12 -4 -19 -1 -8 3 -5 6 6 6 11 1 17 -2 13 -5z"/>
<path d="M6378 4423 c7 -3 16 -2 19 1 4 3 -2 6 -13 5 -11 0 -14 -3 -6 -6z"/>
<path d="M7538 3433 c6 -2 18 -2 25 0 6 3 1 5 -13 5 -14 0 -19 -2 -12 -5z"/>
<path d="M9282 3765 c0 -16 2 -22 5 -12 2 9 2 23 0 30 -3 6 -5 -1 -5 -18z"/>
<path d="M9183 3640 c0 -25 2 -35 4 -22 2 12 2 32 0 45 -2 12 -4 2 -4 -23z"/>
<path d="M8765 3551 c-3 -5 -1 -12 5 -16 5 -3 10 1 10 9 0 18 -6 21 -15 7z"/>
<path d="M4382 3490 c0 -19 2 -27 5 -17 2 9 2 25 0 35 -3 9 -5 1 -5 -18z"/>
<path d="M4380 3418 c0 -19 2 -20 10 -8 13 19 13 30 0 30 -5 0 -10 -10 -10
-22z"/>
<path d="M8922 3400 c0 -14 2 -19 5 -12 2 6 2 18 0 25 -3 6 -5 1 -5 -13z"/>
<path d="M5630 3361 c0 -33 15 -49 23 -27 7 18 -3 56 -14 56 -5 0 -9 -13 -9
-29z"/>
<path d="M9079 3353 c-12 -16 -12 -17 2 -6 9 7 20 9 24 5 5 -4 5 -1 1 6 -9 16
-11 15 -27 -5z"/>
<path d="M8750 3305 c-1 -11 -4 -14 -7 -7 -2 6 -9 12 -15 12 -6 0 -5 -6 2 -15
15 -18 35 -5 27 17 -3 8 -6 6 -7 -7z"/>
<path d="M8378 3227 l-78 -10 0 -38 c0 -21 4 -40 8 -43 12 -7 165 15 177 25
10 10 0 12 -62 9 -33 -1 -43 2 -43 14 0 11 10 16 35 17 19 1 40 3 45 4 6 1 17
3 25 4 8 0 15 8 15 16 0 17 -7 17 -122 2z m-22 -54 c-10 -10 -19 5 -10 18 6
11 8 11 12 0 2 -7 1 -15 -2 -18z"/>
<path d="M4380 3204 c0 -8 5 -12 10 -9 6 3 10 10 10 16 0 5 -4 9 -10 9 -5 0
-10 -7 -10 -16z"/>
<path d="M6037 3133 c-4 -3 -7 -15 -7 -26 0 -19 1 -20 20 -2 11 10 20 22 20
27 0 10 -24 11 -33 1z"/>
<path d="M8742 3100 c0 -14 2 -19 5 -12 2 6 2 18 0 25 -3 6 -5 1 -5 -13z"/>
<path d="M8370 3080 c-41 -5 -162 -17 -269 -29 -130 -13 -197 -24 -202 -33
-11 -17 -12 -585 -1 -592 9 -5 456 10 582 21 65 5 78 8 55 14 -28 6 -29 7 -7
14 12 4 22 11 22 15 0 8 -32 21 -60 25 -8 1 -19 3 -24 4 -16 2 16 31 35 31 11
0 19 4 19 8 0 5 -13 7 -30 4 -24 -3 -30 -1 -30 14 0 11 4 15 8 9 4 -5 14 -9
22 -9 8 1 25 2 36 3 12 0 25 8 28 17 5 12 0 15 -22 14 -49 -4 -62 0 -62 15 0
11 11 15 39 15 51 0 71 8 72 29 0 13 2 12 8 -3 10 -27 20 -7 14 27 -4 19 -10
26 -19 23 -8 -3 -14 0 -14 7 0 9 -3 8 -9 -1 -10 -17 -171 -28 -171 -13 0 16
75 28 178 30 l42 1 0 93 c0 124 -8 167 -28 160 -9 -4 -13 -2 -9 4 10 16 -3 43
-17 37 -13 -5 -54 34 -46 45 7 9 -55 10 -140 1z m137 -6 c-3 -3 -12 -4 -19 -1
-8 3 -5 6 6 6 11 1 17 -2 13 -5z m-307 -93 c0 -10 -35 -19 -94 -23 -49 -3 -62
19 -14 24 77 8 108 7 108 -1z m-150 -16 c0 -11 -11 -15 -40 -15 -51 0 -53 17
-2 23 20 2 38 4 40 5 1 1 2 -5 2 -13z m-96 -16 c-3 -5 -10 -7 -15 -3 -5 3 -7
10 -3 15 3 5 10 7 15 3 5 -3 7 -10 3 -15z m596 -84 c0 -6 -13 -12 -30 -13 -30
-1 -43 22 -17 31 19 6 47 -4 47 -18z m-75 4 c10 -15 -1 -23 -20 -15 -9 3 -13
10 -10 16 8 13 22 13 30 -1z m-54 -22 c-13 -13 -26 -3 -16 12 3 6 11 8 17 5 6
-4 6 -10 -1 -17z m-350 -15 c0 -12 3 -11 9 6 11 27 26 29 33 2 6 -24 -16 -59
-27 -41 -6 9 -11 9 -21 1 -8 -7 -19 -9 -25 -5 -5 3 -10 0 -11 -7 0 -7 -3 -8
-5 -2 -2 6 -22 9 -44 7 -23 -2 -40 1 -40 8 0 5 6 7 13 3 8 -6 8 -3 -1 9 -14
17 -9 37 10 37 5 0 8 -7 4 -15 -3 -8 -4 -15 -2 -15 3 0 11 -2 19 -5 8 -4 14 0
14 9 0 8 -4 13 -9 10 -4 -3 -8 0 -8 6 0 6 8 10 18 8 9 -2 17 -10 17 -18 0 -9
11 -16 25 -18 22 -2 23 -1 7 9 -14 8 -16 14 -6 25 14 16 29 9 30 -14z m79 15
c0 -7 -6 -22 -14 -32 -12 -17 -13 -16 -12 13 1 30 26 48 26 19z m90 -146 c0
-10 -77 -24 -91 -16 -5 4 -7 11 -4 16 8 11 95 12 95 0z m-293 -23 c-3 -8 -6
-5 -6 6 -1 11 2 17 5 13 3 -3 4 -12 1 -19z m113 12 c0 -5 -5 -10 -11 -10 -5 0
-7 5 -4 10 3 6 8 10 11 10 2 0 4 -4 4 -10z m70 0 c0 -5 -13 -10 -30 -10 -16 0
-30 5 -30 10 0 6 14 10 30 10 17 0 30 -4 30 -10z m-100 -4 c0 -2 -7 -7 -16
-10 -8 -3 -12 -2 -9 4 6 10 25 14 25 6z m426 -73 c-10 -10 -19 5 -10 18 6 11
8 11 12 0 2 -7 1 -15 -2 -18z m-226 -4 c0 -6 -6 -9 -12 -6 -7 2 -21 0 -30 -5
-16 -8 -25 1 -14 13 10 10 56 8 56 -2z m-269 -6 c-11 -5 -11 -7 0 -14 11 -7
10 -9 -3 -9 -18 0 -23 11 -11 23 3 4 11 7 17 6 6 0 5 -3 -3 -6z m199 -1 c0 -6
-60 -14 -134 -16 -16 -1 -31 4 -33 11 -3 8 21 12 81 12 47 0 86 -3 86 -7z
m-190 -92 c0 -11 -7 -20 -15 -20 -15 0 -21 21 -8 33 12 13 23 7 23 -13z m190
7 c0 -9 -16 -14 -47 -15 -27 -1 -55 -3 -63 -4 -31 -3 -60 2 -60 12 0 5 37 11
83 13 45 1 83 4 85 5 1 1 2 -4 2 -11z m80 3 c0 -5 -16 -10 -35 -10 -19 0 -35
5 -35 10 0 6 16 10 35 10 19 0 35 -4 35 -10z"/>
<path d="M6927 3043 c3 -7 9 -13 13 -13 4 0 10 6 13 13 3 7 -3 13 -13 13 -10
0 -16 -6 -13 -13z"/>
<path d="M6975 3051 c-3 -5 0 -13 6 -17 7 -4 9 -3 5 4 -3 5 0 13 6 15 9 4 10
6 1 6 -6 1 -14 -3 -18 -8z"/>
<path d="M7010 3046 c0 -9 5 -16 10 -16 6 0 10 4 10 9 0 6 -4 13 -10 16 -5 3
-10 -1 -10 -9z"/>
<path d="M8740 3052 c0 -5 6 -16 13 -27 11 -14 16 -15 22 -5 5 8 4 11 -2 7 -6
-4 -14 0 -17 9 -5 12 -2 15 9 10 9 -3 13 -2 10 4 -7 12 -35 13 -35 2z"/>
<path d="M9209 3058 c-7 -27 -7 -48 0 -52 5 -3 8 2 7 11 0 9 5 18 12 20 8 3
10 -2 6 -14 -4 -14 -4 -15 4 -4 5 7 15 10 21 7 6 -4 11 -5 11 -2 0 6 -59 39
-61 34z"/>
<path d="M6865 3041 c3 -5 -3 -12 -12 -14 -14 -4 -13 -5 5 -6 13 -1 22 5 22
14 0 8 -5 15 -11 15 -5 0 -8 -4 -4 -9z"/>
<path d="M6703 3033 c-22 -8 -14 -18 14 -20 14 0 22 2 17 6 -5 3 -11 9 -14 12
-3 4 -11 4 -17 2z"/>
<path d="M6740 3035 c0 -2 6 -8 13 -14 10 -8 14 -7 14 2 0 8 -6 14 -14 14 -7
0 -13 -1 -13 -2z"/>
<path d="M6785 3031 c-3 -5 0 -13 6 -17 7 -4 9 -3 5 4 -3 5 0 13 6 15 9 4 10
6 1 6 -6 1 -14 -3 -18 -8z"/>
<path d="M6510 3010 c0 -11 4 -20 9 -20 5 0 7 9 4 20 -3 11 -7 20 -9 20 -2 0
-4 -9 -4 -20z"/>
<path d="M9156 2995 c-3 -8 -12 -15 -21 -15 -8 0 -15 -7 -15 -15 0 -8 -9 -15
-19 -15 -10 0 -22 -7 -25 -15 -5 -13 -10 -14 -27 -5 -19 11 -20 10 -9 -9 6
-12 7 -21 2 -21 -4 0 -7 -13 -6 -30 1 -21 -2 -30 -14 -30 -26 0 -5 -12 25 -14
15 -2 28 -7 28 -12 0 -5 -4 -8 -8 -6 -5 1 -27 -3 -49 -10 -33 -10 -37 -13 -22
-19 18 -7 18 -8 0 -8 -11 -1 -16 -4 -13 -7 3 -4 2 -15 -3 -24 -14 -25 9 -31
56 -15 34 11 36 13 15 17 -21 3 -19 6 21 26 25 12 48 29 51 36 3 8 16 16 29
18 13 2 23 10 24 18 1 19 15 53 24 60 4 3 10 16 14 30 3 14 3 19 0 12 -9 -20
-56 31 -48 52 3 9 4 16 1 16 -3 0 -7 -7 -11 -15z m-136 -249 c0 -2 -8 -10 -17
-17 -16 -13 -17 -12 -4 4 13 16 21 21 21 13z"/>
<path d="M9756 2958 c-14 -8 -17 -24 -15 -116 1 -143 1 -154 -11 -147 -5 3 -7
0 -4 -8 3 -8 0 -18 -5 -22 -6 -3 -9 -11 -6 -16 4 -5 2 -9 -2 -9 -5 0 -15 -17
-22 -37 -8 -21 -19 -41 -25 -45 -8 -5 -7 -8 2 -8 6 0 12 -9 12 -19 0 -11 6
-23 12 -27 9 -6 5 -10 -12 -15 -20 -6 -18 -7 16 -8 50 -1 57 -7 39 -35 -10
-14 -11 -26 -5 -36 15 -23 12 -40 -6 -40 -11 0 -14 -5 -10 -16 6 -15 4 -15
-11 -3 -11 9 -14 10 -9 2 7 -13 3 -15 -47 -16 -25 -1 -27 -3 -12 -13 9 -7 23
-21 32 -31 8 -10 12 -12 8 -5 -3 6 -1 12 4 12 6 0 11 7 11 17 0 9 3 14 6 10
11 -11 -6 -55 -24 -61 -9 -3 5 -4 32 -2 47 4 48 3 30 -14 -11 -10 -34 -21 -52
-24 -19 -2 -42 -12 -53 -22 -22 -20 -73 -28 -66 -11 2 7 -2 18 -9 25 -12 10
-13 9 -11 -9 1 -12 -4 -24 -13 -26 -13 -4 -13 -3 0 6 11 8 -17 11 -102 11 -98
0 -118 3 -118 15 0 8 9 15 21 15 11 0 18 4 15 9 -12 19 -41 4 -41 -20 0 -22 5
-25 55 -30 30 -3 43 -6 29 -7 -27 -2 -39 -17 -32 -39 6 -16 169 -18 178 -3 8
12 65 13 65 1 0 -5 11 -8 24 -8 33 0 53 -22 48 -51 -3 -16 -1 -23 5 -19 15 10
35 -18 37 -50 2 -41 29 -68 55 -54 51 28 51 30 51 414 0 309 -2 361 -15 374
-13 13 -15 32 -9 113 5 79 4 98 -8 102 -8 3 -22 2 -32 -4z m51 -570 c-2 -13
-4 -5 -4 17 -1 22 1 32 4 23 2 -10 2 -28 0 -40z m-132 -76 c-3 -3 -11 0 -18 7
-9 10 -8 11 6 5 10 -3 15 -9 12 -12z m-10 -114 c-3 -12 1 -26 8 -31 8 -6 5 -7
-7 -3 -11 4 -23 1 -28 -6 -6 -11 -8 -10 -8 0 0 7 -5 10 -12 6 -7 -4 -8 -3 -4
5 4 6 10 9 14 7 4 -2 13 2 20 10 7 8 10 14 7 14 -3 0 -3 5 0 10 10 16 14 11
10 -12z"/>
<path d="M9887 2952 c-13 -3 -17 -14 -17 -47 0 -36 3 -43 18 -40 9 2 40 4 67
5 28 1 43 4 34 7 -11 3 -15 12 -11 29 8 44 -21 59 -91 46z"/>
<path d="M8720 2834 c0 -61 4 -93 10 -89 6 3 10 1 10 -4 0 -6 -4 -11 -10 -11
-6 0 -10 -30 -10 -70 l0 -70 35 0 35 0 0 74 c0 69 -1 74 -20 69 -11 -3 -20 0
-20 6 0 6 9 11 19 11 15 0 20 9 22 43 6 69 -3 95 -38 117 l-33 20 0 -96z"/>
<path d="M6811 2766 c-8 -10 -8 -16 3 -25 10 -8 16 -9 21 -1 4 6 3 10 -2 9
-20 -3 -25 2 -13 16 7 8 10 15 7 15 -2 0 -10 -6 -16 -14z"/>
<path d="M6730 2760 c0 -5 5 -10 11 -10 5 0 7 5 4 10 -3 6 -8 10 -11 10 -2 0
-4 -4 -4 -10z"/>
<path d="M6570 2750 c0 -5 6 -10 13 -10 8 0 7 -4 -3 -10 -13 -8 -12 -10 3 -10
19 0 20 1 11 24 -7 18 -24 22 -24 6z"/>
<path d="M8926 2752 c-3 -5 1 -9 9 -9 8 0 12 4 9 9 -3 4 -7 8 -9 8 -2 0 -6 -4
-9 -8z"/>
<path d="M6617 2743 c-10 -9 -9 -23 1 -23 5 0 9 7 9 15 0 17 -1 18 -10 8z"/>
<path d="M6650 2741 c0 -6 4 -13 10 -16 6 -3 7 1 4 9 -7 18 -14 21 -14 7z"/>
<path d="M7700 2645 c0 -57 4 -95 10 -95 6 0 10 38 10 95 0 57 -4 95 -10 95
-6 0 -10 -38 -10 -95z"/>
<path d="M7550 2640 c0 -49 4 -90 9 -90 9 0 20 149 13 170 -2 6 -8 10 -13 10
-5 0 -9 -40 -9 -90z"/>
<path d="M8898 2703 c7 -3 16 -2 19 1 4 3 -2 6 -13 5 -11 0 -14 -3 -6 -6z"/>
<path d="M8974 2690 c0 -13 4 -16 10 -10 7 7 7 13 0 20 -6 6 -10 3 -10 -10z"/>
<path d="M9030 2699 c-20 -8 -22 -12 -10 -19 8 -5 20 -10 25 -10 6 0 3 5 -5
10 -12 8 -10 10 8 10 13 0 20 -4 17 -10 -4 -6 6 -7 25 -4 16 4 30 2 30 -3 0
-5 -15 -10 -32 -11 -18 -1 -39 -10 -45 -19 -12 -16 -14 -15 -26 2 -14 18 -37
14 -37 -8 0 -7 4 -6 11 3 8 11 12 12 16 2 2 -7 11 -19 19 -27 9 -8 10 -16 4
-20 -5 -3 -10 -2 -10 3 0 6 -7 13 -16 16 -10 4 -13 2 -8 -6 5 -8 2 -9 -10 -5
-14 6 -17 3 -12 -9 5 -14 4 -15 -8 -5 -11 9 -16 9 -22 0 -4 -8 -3 -9 4 -5 7 4
12 2 12 -3 0 -6 -4 -11 -9 -11 -5 0 -11 -6 -14 -13 -3 -9 14 -12 72 -9 42 1
91 5 109 8 31 5 32 6 32 54 0 30 -4 50 -11 50 -6 0 -9 7 -5 15 3 9 0 15 -9 15
-8 0 -15 4 -15 8 0 12 -51 12 -80 1z"/>
<path d="M5625 2638 c-8 -56 -3 -82 21 -109 l19 -21 5 38 c8 63 0 113 -20 124
-17 9 -20 5 -25 -32z"/>
<path d="M7480 2595 c0 -30 5 -55 10 -55 6 0 10 25 10 55 0 30 -4 55 -10 55
-5 0 -10 -25 -10 -55z"/>
<path d="M7620 2595 c0 -33 4 -45 15 -45 11 0 15 12 15 45 0 33 -4 45 -15 45
-11 0 -15 -12 -15 -45z"/>
<path d="M8560 2631 c0 -16 25 -19 38 -5 11 12 8 14 -13 14 -14 0 -25 -4 -25
-9z"/>
<path d="M8880 2631 c0 -6 4 -12 8 -15 5 -3 9 1 9 9 0 8 -4 15 -9 15 -4 0 -8
-4 -8 -9z"/>
<path d="M7417 2583 c-11 -10 -8 -43 3 -43 6 0 10 11 10 25 0 26 -2 29 -13 18z"/>
<path d="M8732 2572 c-7 -2 -12 -23 -12 -53 0 -48 1 -49 30 -49 18 0 37 8 47
20 10 11 24 20 33 21 8 0 -7 7 -35 14 -27 7 -40 13 -27 14 12 0 22 7 22 15 0
14 -36 26 -58 18z"/>
<path d="M8567 2556 c-4 -10 0 -12 14 -9 27 7 34 23 11 23 -11 0 -22 -6 -25
-14z"/>
<path d="M5938 2553 c7 -3 16 -2 19 1 4 3 -2 6 -13 5 -11 0 -14 -3 -6 -6z"/>
<path d="M6638 2543 l-68 -4 0 -40 0 -41 98 7 c53 4 101 11 105 15 5 4 7 20 5
36 -3 32 -11 34 -140 27z m102 -34 c0 -5 -11 -9 -25 -9 -33 0 -33 15 0 16 14
1 25 -2 25 -7z m-70 -9 c-20 -13 -70 -13 -70 0 0 6 19 10 43 10 31 0 38 -3 27
-10z"/>
<path d="M8888 2543 c6 -2 18 -2 25 0 6 3 1 5 -13 5 -14 0 -19 -2 -12 -5z"/>
<path d="M9055 2533 c-121 -11 -155 -16 -155 -23 0 -5 9 -7 20 -5 11 2 20 -2
20 -8 0 -7 4 -6 10 3 5 8 10 10 10 4 0 -12 99 -12 120 1 9 5 11 4 6 -3 -4 -7
-1 -12 9 -12 10 0 13 5 9 12 -5 8 -2 9 9 5 12 -4 17 -1 17 10 0 12 3 13 14 4
9 -8 16 -9 21 -2 6 12 -29 22 -60 19 -11 -2 -33 -4 -50 -5z"/>
<path d="M5930 2491 c0 -25 5 -41 15 -45 12 -4 15 4 15 39 0 33 -4 45 -15 45
-11 0 -15 -11 -15 -39z"/>
<path d="M9660 2515 c0 -8 4 -15 10 -15 5 0 7 7 4 15 -4 8 -8 15 -10 15 -2 0
-4 -7 -4 -15z"/>
<path d="M8528 2513 c7 -3 16 -2 19 1 4 3 -2 6 -13 5 -11 0 -14 -3 -6 -6z"/>
<path d="M5630 2463 c0 -46 17 -82 32 -67 11 10 -3 89 -17 103 -13 14 -15 9
-15 -36z"/>
<path d="M9852 2455 c0 -16 2 -22 5 -12 2 9 2 23 0 30 -3 6 -5 -1 -5 -18z"/>
<path d="M8720 2445 c0 -12 13 -15 58 -15 52 1 55 2 38 15 -27 20 -96 20 -96
0z"/>
<path d="M9548 2433 c17 -2 47 -2 65 0 17 2 3 4 -33 4 -36 0 -50 -2 -32 -4z"/>
<path d="M9113 2423 c9 -2 23 -2 30 0 6 3 -1 5 -18 5 -16 0 -22 -2 -12 -5z"/>
<path d="M5930 2395 c0 -16 6 -25 15 -25 9 0 15 9 15 25 0 16 -6 25 -15 25 -9
0 -15 -9 -15 -25z"/>
<path d="M8721 2355 l-2 -65 37 0 c21 0 35 3 31 6 -3 4 4 15 16 25 l22 18 -32
1 c-17 0 -35 5 -38 10 -4 6 5 10 19 10 16 0 26 6 26 15 0 8 -3 14 -7 14 -19
-3 -47 3 -35 8 20 8 14 18 -12 21 -22 1 -23 -2 -25 -63z"/>
<path d="M9555 2409 c-38 -4 -27 -6 45 -7 93 0 109 3 40 10 -19 2 -57 0 -85
-3z"/>
<path d="M8980 2382 c-22 -11 -13 -12 70 -11 100 3 120 6 120 20 0 13 -163 5
-190 -9z"/>
<path d="M5630 2370 c0 -5 5 -10 11 -10 5 0 7 5 4 10 -3 6 -8 10 -11 10 -2 0
-4 -4 -4 -10z"/>
<path d="M9067 2354 c-2 -2 -33 -4 -70 -5 -37 -1 -67 -5 -67 -10 0 -5 12 -9
28 -9 l27 -1 -32 -14 c-18 -8 -33 -17 -33 -21 0 -4 53 -4 118 0 64 4 125 7
135 7 9 0 17 4 17 10 0 5 -9 9 -19 9 -10 0 -21 7 -24 14 -4 10 -1 13 7 10 8
-3 17 -1 21 5 4 7 -4 11 -19 11 -14 0 -26 -6 -26 -12 0 -8 -3 -9 -8 -3 -7 10
-48 16 -55 9z"/>
<path d="M9433 2353 c15 -2 37 -2 50 0 12 2 0 4 -28 4 -27 0 -38 -2 -22 -4z"/>
<path d="M9538 2353 c12 -2 32 -2 45 0 12 2 2 4 -23 4 -25 0 -35 -2 -22 -4z"/>
<path d="M9658 2353 c7 -3 16 -2 19 1 4 3 -2 6 -13 5 -11 0 -14 -3 -6 -6z"/>
<path d="M5623 2326 c0 -21 4 -26 24 -26 20 0 24 4 21 23 -2 13 -11 23 -24 25
-17 2 -21 -2 -21 -22z"/>
<path d="M5940 2340 c0 -5 5 -10 10 -10 6 0 10 5 10 10 0 6 -4 10 -10 10 -5 0
-10 -4 -10 -10z"/>
<path d="M9368 2343 c6 -2 18 -2 25 0 6 3 1 5 -13 5 -14 0 -19 -2 -12 -5z"/>
<path d="M9380 2320 c-14 -4 13 -5 60 -2 47 2 87 6 89 8 8 7 -124 2 -149 -6z"/>
<path d="M5940 2293 c0 -14 3 -23 7 -19 10 10 11 46 1 46 -4 0 -8 -12 -8 -27z"/>
<path d="M5620 2270 c0 -5 11 -10 25 -10 14 0 25 5 25 10 0 6 -11 10 -25 10
-14 0 -25 -4 -25 -10z"/>
<path d="M9294 2268 c-4 -7 -4 -10 1 -6 4 4 15 2 23 -5 12 -10 14 -9 11 2 -7
20 -26 25 -35 9z"/>
<path d="M9353 2273 c-10 -3 -10 -8 1 -19 10 -9 35 -14 78 -13 l63 1 -50 12
-50 13 65 5 65 4 -80 1 c-44 1 -86 -1 -92 -4z"/>
<path d="M8973 2246 c8 -12 22 -21 31 -21 9 0 15 -4 15 -9 -2 -18 28 -26 103
-26 l76 0 7 31 c4 17 4 33 0 37 -4 4 -60 7 -126 8 -120 1 -120 1 -106 -20z"/>
<path d="M9582 2245 c-17 -20 -19 -25 -6 -25 9 0 12 -5 8 -12 -4 -7 -3 -8 4
-4 6 4 9 13 5 21 -3 9 0 22 7 30 21 25 5 16 -18 -10z"/>
<path d="M4806 2239 c3 -5 -4 -9 -14 -9 -31 0 -44 -24 -36 -65 8 -42 30 -57
70 -46 22 6 29 13 29 32 0 13 6 29 14 35 10 8 11 13 2 18 -6 4 -8 12 -5 18 5
7 2 8 -6 3 -7 -4 -16 -2 -20 6 -5 7 -16 14 -24 15 -9 1 -14 -2 -10 -7z m64
-45 c0 -2 -8 0 -19 5 -10 6 -22 7 -26 3 -5 -4 -5 -1 -1 6 5 9 12 9 27 2 10 -6
19 -13 19 -16z"/>
<path d="M5635 2240 c-11 -5 -16 -9 -11 -9 13 -1 -25 -41 -39 -41 -6 0 -20 -7
-31 -16 -10 -8 -14 -13 -9 -11 6 3 16 -1 22 -8 10 -11 8 -15 -10 -18 -16 -3
-14 -5 9 -6 40 -1 64 -29 71 -80 3 -22 11 -42 18 -45 18 -6 49 30 39 45 -4 7
-3 10 4 5 6 -3 14 -1 18 5 4 8 3 9 -4 5 -7 -4 -12 -2 -12 4 0 6 -4 8 -10 5 -5
-3 -10 3 -10 15 0 14 -4 19 -12 14 -8 -5 -8 -2 1 10 23 28 23 74 1 96 -11 11
-15 20 -10 20 6 0 10 5 10 10 0 12 -8 12 -35 0z"/>
<path d="M5930 2180 c0 -29 4 -40 15 -40 12 0 15 10 13 40 -1 25 -7 40 -15 40
-9 0 -13 -14 -13 -40z"/>
<path d="M6620 2115 c0 -8 5 -15 10 -15 6 0 10 7 10 15 0 8 -4 15 -10 15 -5 0
-10 -7 -10 -15z"/>
<path d="M5937 2098 c-12 -44 -8 -88 8 -88 11 0 15 11 15 43 0 52 -14 80 -23
45z"/>
<path d="M9360 2076 c0 -9 -4 -16 -10 -16 -15 0 -12 -30 3 -30 6 0 4 -5 -6
-11 -17 -10 -16 -12 7 -30 13 -10 30 -20 38 -20 7 -1 0 -5 -17 -9 -23 -6 -15
-8 37 -9 41 -1 68 3 70 10 2 6 16 12 31 12 15 0 27 2 27 6 0 4 14 12 30 18 18
7 30 19 31 30 0 16 1 16 9 -2 7 -16 9 -11 9 20 0 31 -2 36 -9 20 -7 -17 -9
-17 -9 -2 -1 14 -11 17 -60 17 -32 0 -86 3 -120 6 -52 6 -61 5 -61 -10z"/>
<path d="M5758 2041 c-11 -11 -14 -21 -8 -27 5 -5 0 -13 -16 -21 -16 -7 -22
-7 -17 0 4 6 -2 8 -18 4 -13 -4 -34 -7 -47 -7 -23 0 -24 -2 -21 -77 3 -116 6
-113 -118 -113 -80 0 -103 -3 -97 -12 6 -10 4 -10 -7 0 -7 6 -19 12 -27 12
-16 0 -7 -36 14 -58 8 -7 14 -18 14 -25 0 -6 6 -2 14 8 8 11 13 22 11 25 -2 3
54 4 125 2 128 -4 128 -4 133 20 4 23 4 23 6 1 1 -22 4 -23 106 -23 101 0 105
-1 130 -27 l25 -28 0 123 c0 102 -2 122 -15 122 -11 0 -15 -11 -15 -42 0 -39
-1 -40 -18 -25 -10 10 -22 17 -26 17 -4 0 -21 9 -36 20 l-28 20 -27 -31 -26
-32 7 28 c6 22 4 26 -7 19 -32 -19 -69 -58 -70 -73 0 -10 -2 -12 -6 -4 -2 7
12 33 32 58 21 25 34 45 30 45 -4 0 -2 6 4 13 6 8 8 17 4 20 -13 14 -20 6 -18
-17 2 -19 -1 -23 -13 -18 -10 3 -12 7 -4 10 7 2 12 8 12 13 0 6 -6 7 -12 3 -9
-5 -8 -2 1 9 8 10 21 15 32 12 18 -6 20 8 4 35 -5 9 0 8 13 -4 26 -23 40 -16
17 8 -9 9 -13 20 -10 26 10 16 -9 10 -27 -9z m-338 -306 c0 -5 -5 -3 -10 5 -5
8 -10 20 -10 25 0 6 5 3 10 -5 5 -8 10 -19 10 -25z"/>
<path d="M3985 2030 c-3 -5 -1 -18 4 -27 9 -16 10 -14 11 10 0 28 -5 34 -15
17z"/>
<path d="M5930 1985 c0 -8 7 -15 15 -15 8 0 15 7 15 15 0 8 -7 15 -15 15 -8 0
-15 -7 -15 -15z"/>
<path d="M5595 1980 c-3 -5 -1 -10 4 -10 6 0 11 5 11 10 0 6 -2 10 -4 10 -3 0
-8 -4 -11 -10z"/>
<path d="M6620 1965 c0 -8 5 -15 10 -15 6 0 10 7 10 15 0 8 -4 15 -10 15 -5 0
-10 -7 -10 -15z"/>
<path d="M5564 1949 c-3 -6 -2 -15 3 -20 5 -5 9 -1 10 11 2 22 -2 25 -13 9z"/>
<path d="M5589 1950 c-1 -5 -2 -16 -3 -22 -1 -7 -7 -12 -14 -10 -7 1 -12 -2
-12 -8 0 -5 4 -10 9 -10 5 0 16 -3 25 -6 13 -5 16 1 16 30 0 20 -4 36 -10 36
-5 0 -11 -4 -11 -10z"/>
<path d="M5533 1912 c-8 -14 -8 -19 1 -19 7 0 13 9 13 19 1 10 1 18 0 18 -1 0
-7 -8 -14 -18z"/>
<path d="M5215 1901 c6 -11 4 -13 -8 -8 -13 5 -17 1 -16 -16 1 -29 -4 -46 -20
-77 l-14 -25 24 25 c15 15 21 28 14 32 -6 5 -5 8 3 8 6 0 13 10 13 23 1 18 3
16 9 -8 l8 -30 1 28 c1 31 20 35 64 13 15 -8 27 -11 27 -6 0 5 -19 15 -42 21
-24 7 -49 17 -57 23 -12 9 -13 8 -6 -3z"/>
<path d="M5315 1840 c-11 -5 -14 -9 -7 -9 9 -1 10 -6 3 -20 -8 -14 -7 -20 5
-25 8 -3 12 -2 9 4 -3 6 -4 10 0 10 3 0 10 -10 15 -22 7 -19 9 -14 9 25 1 49
-1 51 -34 37z"/>
<path d="M6620 1820 c0 -5 5 -10 10 -10 6 0 10 5 10 10 0 6 -4 10 -10 10 -5 0
-10 -4 -10 -10z"/>
<path d="M5146 1762 c-4 -7 -4 -18 0 -24 5 -8 2 -8 -10 1 -16 13 -17 11 -15
-31 2 -35 6 -45 17 -41 11 5 11 7 0 14 -7 5 -8 9 -2 9 5 0 15 -5 22 -12 6 -6
18 -13 26 -14 7 -1 23 -5 35 -9 15 -4 21 -3 19 7 -2 8 6 12 22 11 23 -2 23 -2
5 6 -18 9 -18 10 6 10 23 1 27 5 26 29 -2 34 -27 65 -27 32 0 -34 -19 -60 -43
-60 -31 0 -43 10 -59 50 -9 22 -17 30 -22 22z"/>
<path d="M5215 1750 c-3 -5 -1 -10 4 -10 6 0 11 5 11 10 0 6 -2 10 -4 10 -3 0
-8 -4 -11 -10z"/>
<path d="M5198 1718 c6 -6 18 -8 28 -6 14 3 12 5 -9 10 -19 3 -25 2 -19 -4z"/>
<path d="M5676 1708 c5 -13 1 -18 -14 -18 -11 0 -48 -9 -83 -20 -54 -16 -66
-24 -78 -52 -19 -43 -21 -85 -4 -85 7 0 11 3 8 5 -3 3 5 16 17 30 13 13 22 25
21 28 -8 13 -1 23 12 18 8 -4 12 -10 9 -15 -3 -5 -10 -7 -15 -3 -5 3 -8 2 -7
-3 1 -4 -8 -28 -20 -52 -12 -25 -22 -54 -22 -65 1 -12 9 0 18 26 9 26 28 60
42 75 14 15 24 30 23 33 -1 3 8 7 20 9 38 5 146 7 142 3 -2 -2 10 -16 27 -30
42 -35 78 -115 79 -177 1 -44 2 -46 9 -20 7 29 8 29 10 -10 1 -33 3 -36 11
-20 8 18 8 17 6 -5 -1 -14 -8 -24 -14 -23 -6 1 -9 -7 -6 -20 4 -18 3 -19 -6
-7 -8 11 -11 12 -11 2 0 -8 -5 -10 -12 -6 -8 5 -9 2 -4 -12 4 -10 4 -15 1 -12
-4 4 -21 -10 -38 -29 -36 -40 -92 -69 -110 -55 -7 5 -29 8 -50 6 -21 -1 -37 0
-34 2 2 2 -13 22 -33 43 -21 22 -43 59 -51 85 -7 25 -19 48 -27 51 -7 2 -10 0
-7 -5 3 -6 1 -10 -5 -10 -8 0 -10 -10 -6 -27 5 -21 4 -24 -4 -13 -11 17 -13 7
-11 -70 3 -76 10 -98 37 -104 14 -4 23 -10 20 -14 -4 -6 22 -11 76 -15 9 -1
16 -6 15 -11 -4 -21 196 -35 209 -15 3 6 17 8 32 4 16 -4 28 -1 34 7 6 10 10
10 18 -2 7 -11 10 -11 10 -2 0 7 5 10 10 7 6 -4 10 18 10 60 0 50 -5 75 -22
105 -20 34 -21 43 -10 60 7 11 10 31 6 45 -4 15 -2 25 4 25 6 0 13 -8 15 -17
3 -10 5 20 6 66 1 69 -1 82 -13 78 -10 -4 -13 -1 -9 9 14 37 -48 104 -96 104
-6 0 -11 4 -11 10 0 5 -11 12 -25 16 -14 3 -22 10 -19 15 3 5 2 9 -3 10 -4 0
-18 2 -30 3 -12 1 -20 -1 -17 -6 10 -16 -9 -8 -22 10 -13 16 -14 16 -8 0z"/>
<path d="M9310 1711 c0 -5 -14 -9 -31 -9 -17 1 -35 -5 -40 -13 -12 -19 -11
-29 1 -29 6 0 10 -6 10 -14 0 -9 7 -13 20 -11 11 2 22 0 25 -6 4 -5 14 -5 26
1 20 11 28 70 8 70 -5 0 -7 5 -4 10 3 6 1 10 -4 10 -6 0 -11 -4 -11 -9z"/>
<path d="M8908 1703 c-16 -2 -28 -8 -28 -13 0 -5 -6 -8 -12 -6 -7 1 -10 1 -5
-1 13 -8 7 -23 -10 -23 -31 0 -6 -10 35 -14 24 -2 40 0 36 5 -3 5 2 9 10 9 9
0 16 4 16 10 0 5 7 7 16 3 13 -5 13 -7 2 -14 -8 -6 3 -9 32 -10 59 -2 101 -7
107 -13 3 -3 3 -13 -1 -22 -6 -15 -18 -16 -94 -12 -48 3 -71 3 -52 -1 l35 -7
-28 -7 c-15 -4 -33 -5 -40 -1 -7 4 -9 4 -5 0 8 -9 -13 -36 -23 -30 -4 2 -10
-16 -13 -41 -7 -42 -9 -45 -39 -46 -18 -1 -24 -3 -14 -6 14 -4 16 -8 6 -19
-14 -17 -33 -19 -23 -1 5 8 3 8 -9 -2 -29 -23 -9 -31 86 -32 149 -2 211 -11
215 -32 3 -17 -6 -17 -130 -13 -88 3 -121 2 -98 -4 30 -8 28 -8 -23 -6 -32 1
-60 -1 -62 -5 -7 -10 44 -17 188 -25 111 -6 128 -9 125 -23 -4 -18 1 -18 -194
-7 -125 6 -132 5 -137 -13 -5 -21 14 -24 243 -40 70 -5 85 -9 88 -24 3 -15 -3
-17 -50 -12 -29 2 -104 7 -167 10 -96 5 -112 3 -103 -8 7 -8 10 -16 7 -18 -2
-3 4 -5 13 -6 162 -15 177 -18 180 -37 4 -18 -2 -18 -100 -12 -71 5 -98 4 -88
-3 8 -6 10 -11 5 -11 -6 0 -16 -13 -22 -30 l-11 -30 46 0 c74 0 215 -19 225
-29 7 -7 7 -15 0 -23 -5 -7 -9 -33 -8 -57 2 -51 30 -81 76 -81 32 0 68 30 71
58 0 9 0 135 -2 280 -2 229 -5 268 -20 300 -11 21 -15 41 -10 47 9 11 6 98 -4
130 -8 23 -43 30 -63 13 -9 -7 -13 -7 -13 1 0 11 -100 13 -162 4z m12 -22 c0
-5 -7 -11 -15 -15 -9 -3 -15 0 -15 9 0 8 7 15 15 15 8 0 15 -4 15 -9z m136
-121 c59 0 74 -19 33 -41 -15 -8 -19 -8 -15 0 5 8 -16 11 -68 11 -57 0 -76 3
-76 13 0 22 13 29 44 23 16 -3 53 -6 82 -6z m-13 -80 c60 0 68 -2 65 -17 -3
-16 -14 -18 -88 -14 -95 3 -102 5 -93 27 4 10 13 14 27 10 11 -3 52 -6 89 -6z
m-158 -50 c-3 -5 -14 -10 -23 -9 -14 0 -13 2 3 9 27 11 27 11 20 0z m-52 -227
c-7 -2 -19 -2 -25 0 -7 3 -2 5 12 5 14 0 19 -2 13 -5z"/>
<path d="M6620 1670 c0 -5 5 -10 10 -10 6 0 10 5 10 10 0 6 -4 10 -10 10 -5 0
-10 -4 -10 -10z"/>
<path d="M5155 1650 c3 -5 8 -10 11 -10 2 0 4 5 4 10 0 6 -5 10 -11 10 -5 0
-7 -4 -4 -10z"/>
<path d="M8790 1585 c0 -29 5 -31 27 -9 13 13 17 13 24 2 6 -9 9 -7 9 10 0 18
-6 22 -30 22 -25 0 -30 -4 -30 -25z"/>
<path d="M5670 1585 l25 -14 -23 -1 c-14 0 -21 -4 -17 -11 4 -6 14 -8 22 -5 8
3 11 1 8 -4 -3 -6 -13 -10 -21 -10 -8 0 -17 -7 -20 -15 -4 -8 -10 -12 -16 -9
-5 3 -5 11 2 19 8 9 8 15 0 20 -6 4 -9 1 -8 -6 2 -7 -1 -13 -7 -14 -25 -1 -35
-16 -24 -36 10 -20 11 -20 26 -2 13 16 14 16 9 1 -3 -10 -1 -18 4 -18 6 0 10
7 10 15 0 23 45 47 82 43 30 -3 33 -6 33 -38 0 -29 -4 -36 -22 -38 -34 -5 -31
-42 3 -42 22 0 25 -3 20 -22 -3 -13 -6 -31 -6 -40 0 -11 -8 -18 -20 -18 -17 0
-20 -7 -20 -49 0 -28 4 -52 8 -55 17 -10 72 40 88 79 20 50 21 153 1 192 -33
63 -78 93 -135 93 l-27 -1 25 -14z m132 -251 c-8 -15 -10 -15 -15 0 -4 9 -2
16 3 16 6 0 11 8 11 18 1 16 2 16 6 0 2 -10 0 -25 -5 -34z"/>
<path d="M6620 1525 c0 -9 5 -15 11 -13 6 2 11 8 11 13 0 5 -5 11 -11 13 -6 2
-11 -4 -11 -13z"/>
<path d="M8837 1520 c-3 -11 -1 -20 4 -20 5 0 9 9 9 20 0 11 -2 20 -4 20 -2 0
-6 -9 -9 -20z"/>
<path d="M5572 1490 c3 -8 -4 -23 -16 -33 -14 -13 -20 -30 -20 -55 2 -46 30
-116 44 -107 5 3 8 0 5 -7 -2 -7 7 -21 20 -31 l25 -18 0 50 c0 32 -5 53 -14
58 -24 14 -25 73 -1 73 18 0 21 45 3 56 -7 5 -8 2 -3 -7 5 -8 -4 -3 -20 11
-16 15 -26 19 -23 10z"/>
<path d="M5678 1479 c-12 -6 -18 -22 -18 -44 0 -28 -4 -35 -20 -35 -11 0 -20
-6 -20 -14 0 -7 9 -16 20 -19 18 -4 20 -14 20 -75 0 -53 4 -71 15 -76 13 -4
15 7 15 69 0 68 2 75 20 75 13 0 20 7 20 20 0 13 -7 20 -20 20 -16 0 -20 7
-20 33 0 18 5 38 12 45 15 15 0 15 -24 1z"/>
<path d="M8734 1458 c3 -10 2 -18 -3 -18 -4 0 -8 -6 -8 -14 0 -8 6 -12 14 -9
16 6 17 23 2 43 -9 13 -10 12 -5 -2z"/>
<path d="M5492 1420 c0 -14 2 -19 5 -12 2 6 2 18 0 25 -3 6 -5 1 -5 -13z"/>
<path d="M8720 1364 c0 -30 35 -33 43 -5 3 14 -2 20 -19 24 -20 3 -24 0 -24
-19z"/>
<path d="M8790 1371 c0 -4 11 -6 25 -3 14 2 25 6 25 8 0 2 -11 4 -25 4 -14 0
-25 -4 -25 -9z"/>
<path d="M9211 1364 c0 -11 3 -14 6 -6 3 7 2 16 -1 19 -3 4 -6 -2 -5 -13z"/>
<path d="M8721 1272 c0 -21 3 -31 6 -24 2 6 11 12 19 12 22 0 17 37 -6 43 -17
4 -20 0 -19 -31z"/>
<path d="M8720 1205 c0 -19 5 -25 21 -25 18 0 19 2 9 15 -10 12 -10 15 1 15
11 0 11 2 -1 10 -23 15 -30 12 -30 -15z"/>
<path d="M8735 1130 c-16 -7 -17 -9 -3 -9 9 -1 20 4 23 9 7 11 7 11 -20 0z"/>
<path d="M8677 1024 c-3 -4 -28 -6 -54 -6 -34 1 -44 -1 -33 -8 13 -9 13 -10 0
-10 -13 0 -13 -1 0 -10 13 -9 12 -13 -5 -26 -19 -16 -19 -16 5 -9 21 7 23 6
12 -7 -10 -13 -7 -16 25 -22 21 -3 84 -6 139 -6 93 0 174 -16 159 -32 -5 -5
97 -19 103 -13 1 1 -9 19 -23 39 -14 21 -21 35 -15 31 14 -9 13 8 -2 23 -9 9
-9 12 0 12 7 0 12 6 12 13 0 23 -302 51 -323 31z"/>
<path d="M9068 703 c7 -3 16 -2 19 1 4 3 -2 6 -13 5 -11 0 -14 -3 -6 -6z"/>
<path d="M9040 679 c0 -5 5 -7 10 -4 6 3 10 8 10 11 0 2 -4 4 -10 4 -5 0 -10
-5 -10 -11z"/>
<path d="M4110 591 c-21 -5 -26 -13 -28 -47 l-4 -42 44 -7 c24 -4 45 -11 48
-15 3 -4 28 -15 55 -24 l50 -16 -45 6 c-25 3 -130 16 -235 30 -104 13 -191 24
-192 24 -7 0 -1 -100 8 -150 6 -30 11 -69 12 -86 1 -18 9 -40 18 -50 19 -23
24 -57 22 -147 l-1 -67 2311 1 c1272 1 2299 4 2282 6 -199 28 -746 105 -800
113 -38 6 -419 61 -845 122 -985 141 -941 134 -1035 148 -43 6 -93 9 -110 6
-22 -4 -26 -3 -15 4 11 8 -1 9 -40 5 -42 -3 -49 -2 -30 5 19 7 12 8 -30 5 -41
-4 -51 -3 -40 5 11 9 7 10 -18 5 -42 -8 -282 26 -256 36 19 7 10 9 -91 15 -16
1 -37 4 -45 7 -8 3 -105 17 -215 31 -110 14 -233 31 -273 37 -40 6 -90 12
-112 14 -22 2 -73 9 -113 14 -89 14 -204 17 -237 8 -20 -6 -21 -6 -5 2 23 11
4 12 -35 2z"/>
<path d="M8240 580 c-54 -5 -59 -7 -30 -11 l35 -6 -35 -1 c-20 -1 -41 3 -48
10 -9 9 -12 9 -12 -3 0 -16 108 -34 255 -42 39 -3 53 -2 33 0 -21 2 -38 9 -38
14 0 35 -54 47 -160 39z m73 -27 c-7 -2 -21 -2 -30 0 -10 3 -4 5 12 5 17 0 24
-2 18 -5z"/>
<path d="M8105 570 c-18 -8 -17 -9 8 -9 16 -1 26 3 22 9 -3 6 -7 10 -8 9 -1 0
-11 -4 -22 -9z"/>
<path d="M4138 473 c7 -3 16 -2 19 1 4 3 -2 6 -13 5 -11 0 -14 -3 -6 -6z"/>
<path d="M5288 453 c6 -2 18 -2 25 0 6 3 1 5 -13 5 -14 0 -19 -2 -12 -5z"/>
<path d="M9916 366 c3 -9 9 -16 13 -17 3 -1 20 -3 36 -6 63 -9 103 -11 115 -3
8 5 2 8 -16 8 -59 1 -128 13 -141 24 -11 8 -12 7 -7 -6z"/>
<path d="M9538 63 c12 -2 32 -2 45 0 12 2 2 4 -23 4 -25 0 -35 -2 -22 -4z"/>
<path d="M9330 10 c0 -5 7 -10 15 -10 8 0 15 5 15 10 0 6 -7 10 -15 10 -8 0
-15 -4 -15 -10z"/>
</g>
</svg>
